<mxfile host="Electron" modified="2023-09-05T23:46:03.362Z" agent="Mozilla/5.0 (Windows NT 10.0; Win64; x64) AppleWebKit/537.36 (KHTML, like Gecko) draw.io/21.6.8 Chrome/114.0.5735.289 Electron/25.5.0 Safari/537.36" etag="Zna3hqxEPL5lSp1VrLri" version="21.6.8" type="device" pages="2">
  <diagram name="Página-1" id="bebqzryfFiRko6zA6lrl">
    <mxGraphModel dx="1036" dy="589" grid="1" gridSize="10" guides="1" tooltips="1" connect="1" arrows="1" fold="1" page="1" pageScale="1" pageWidth="1169" pageHeight="827" math="0" shadow="0">
      <root>
        <mxCell id="0" />
        <mxCell id="1" parent="0" />
        <mxCell id="4e6Jq5Gow97NircjnduV-12" style="edgeStyle=orthogonalEdgeStyle;rounded=0;orthogonalLoop=1;jettySize=auto;html=1;entryX=0;entryY=0.5;entryDx=0;entryDy=0;" edge="1" parent="1" source="4e6Jq5Gow97NircjnduV-1" target="4e6Jq5Gow97NircjnduV-6">
          <mxGeometry relative="1" as="geometry" />
        </mxCell>
        <mxCell id="4e6Jq5Gow97NircjnduV-24" style="edgeStyle=orthogonalEdgeStyle;rounded=0;orthogonalLoop=1;jettySize=auto;html=1;entryX=0.5;entryY=0;entryDx=0;entryDy=0;" edge="1" parent="1" source="4e6Jq5Gow97NircjnduV-1" target="4e6Jq5Gow97NircjnduV-21">
          <mxGeometry relative="1" as="geometry" />
        </mxCell>
        <mxCell id="4e6Jq5Gow97NircjnduV-1" value="ALUMNO" style="swimlane;childLayout=stackLayout;horizontal=1;startSize=50;horizontalStack=0;rounded=1;fontSize=14;fontStyle=0;strokeWidth=2;resizeParent=0;resizeLast=1;shadow=0;dashed=0;align=center;arcSize=4;whiteSpace=wrap;html=1;" vertex="1" parent="1">
          <mxGeometry x="160" y="386" width="160" height="120" as="geometry" />
        </mxCell>
        <mxCell id="4e6Jq5Gow97NircjnduV-2" value="&lt;b&gt;&lt;u&gt;Matrícula&lt;/u&gt;&lt;/b&gt;&lt;br&gt;Nombre&lt;br&gt;Telefono&lt;br&gt;Correo" style="align=left;strokeColor=none;fillColor=none;spacingLeft=4;fontSize=12;verticalAlign=top;resizable=0;rotatable=0;part=1;html=1;" vertex="1" parent="4e6Jq5Gow97NircjnduV-1">
          <mxGeometry y="50" width="160" height="70" as="geometry" />
        </mxCell>
        <mxCell id="4e6Jq5Gow97NircjnduV-3" value="ENTIDAD RELACIÓN&lt;br style=&quot;font-size: 20px;&quot;&gt;&lt;br style=&quot;font-size: 20px;&quot;&gt;NOTACIÓN UML" style="text;html=1;strokeColor=none;fillColor=none;align=center;verticalAlign=middle;whiteSpace=wrap;rounded=0;strokeWidth=50;fontSize=20;fontColor=#FF3333;" vertex="1" parent="1">
          <mxGeometry x="79" y="230" width="230" height="30" as="geometry" />
        </mxCell>
        <mxCell id="4e6Jq5Gow97NircjnduV-4" value="MATERIA" style="swimlane;childLayout=stackLayout;horizontal=1;startSize=50;horizontalStack=0;rounded=1;fontSize=14;fontStyle=0;strokeWidth=2;resizeParent=0;resizeLast=1;shadow=0;dashed=0;align=center;arcSize=4;whiteSpace=wrap;html=1;" vertex="1" parent="1">
          <mxGeometry x="630" y="385" width="160" height="120" as="geometry" />
        </mxCell>
        <mxCell id="4e6Jq5Gow97NircjnduV-5" value="&lt;b&gt;&lt;u&gt;Matrícula&lt;/u&gt;&lt;/b&gt;&lt;br&gt;Nombre&lt;br&gt;Créditos&lt;br&gt;Horas" style="align=left;strokeColor=none;fillColor=none;spacingLeft=4;fontSize=12;verticalAlign=top;resizable=0;rotatable=0;part=1;html=1;" vertex="1" parent="4e6Jq5Gow97NircjnduV-4">
          <mxGeometry y="50" width="160" height="70" as="geometry" />
        </mxCell>
        <mxCell id="4e6Jq5Gow97NircjnduV-13" style="edgeStyle=orthogonalEdgeStyle;rounded=0;orthogonalLoop=1;jettySize=auto;html=1;" edge="1" parent="1" source="4e6Jq5Gow97NircjnduV-6">
          <mxGeometry relative="1" as="geometry">
            <mxPoint x="620" y="446" as="targetPoint" />
          </mxGeometry>
        </mxCell>
        <mxCell id="4e6Jq5Gow97NircjnduV-20" style="edgeStyle=orthogonalEdgeStyle;rounded=0;orthogonalLoop=1;jettySize=auto;html=1;entryX=0.5;entryY=1;entryDx=0;entryDy=0;" edge="1" parent="1" source="4e6Jq5Gow97NircjnduV-6" target="4e6Jq5Gow97NircjnduV-19">
          <mxGeometry relative="1" as="geometry" />
        </mxCell>
        <mxCell id="4e6Jq5Gow97NircjnduV-6" value="Cursa" style="shape=rhombus;perimeter=rhombusPerimeter;whiteSpace=wrap;html=1;align=center;" vertex="1" parent="1">
          <mxGeometry x="410" y="416" width="120" height="60" as="geometry" />
        </mxCell>
        <mxCell id="4e6Jq5Gow97NircjnduV-14" value="" style="endArrow=none;html=1;rounded=0;entryX=1;entryY=0.5;entryDx=0;entryDy=0;strokeWidth=4;exitX=0;exitY=0.5;exitDx=0;exitDy=0;fontColor=#FF3333;" edge="1" parent="1" source="4e6Jq5Gow97NircjnduV-3" target="4e6Jq5Gow97NircjnduV-3">
          <mxGeometry width="50" height="50" relative="1" as="geometry">
            <mxPoint x="109" y="245" as="sourcePoint" />
            <mxPoint x="309" y="390" as="targetPoint" />
          </mxGeometry>
        </mxCell>
        <mxCell id="4e6Jq5Gow97NircjnduV-16" value="&lt;font style=&quot;font-size: 25px;&quot;&gt;*&lt;/font&gt;" style="text;html=1;strokeColor=none;fillColor=none;align=center;verticalAlign=middle;whiteSpace=wrap;rounded=0;" vertex="1" parent="1">
          <mxGeometry x="310" y="422" width="60" height="30" as="geometry" />
        </mxCell>
        <mxCell id="4e6Jq5Gow97NircjnduV-17" value="&lt;font style=&quot;font-size: 25px;&quot;&gt;*&lt;/font&gt;" style="text;html=1;strokeColor=none;fillColor=none;align=center;verticalAlign=middle;whiteSpace=wrap;rounded=0;" vertex="1" parent="1">
          <mxGeometry x="580" y="416" width="60" height="30" as="geometry" />
        </mxCell>
        <mxCell id="4e6Jq5Gow97NircjnduV-18" value="MATERIA" style="swimlane;childLayout=stackLayout;horizontal=1;startSize=50;horizontalStack=0;rounded=1;fontSize=14;fontStyle=0;strokeWidth=2;resizeParent=0;resizeLast=1;shadow=0;dashed=0;align=center;arcSize=4;whiteSpace=wrap;html=1;" vertex="1" parent="1">
          <mxGeometry x="390" y="219" width="160" height="120" as="geometry" />
        </mxCell>
        <mxCell id="4e6Jq5Gow97NircjnduV-19" value="&lt;b&gt;&lt;u&gt;Código&lt;/u&gt;&lt;/b&gt;&lt;br&gt;Curso&lt;br&gt;Calificación&lt;br&gt;Fecha" style="align=left;strokeColor=none;fillColor=none;spacingLeft=4;fontSize=12;verticalAlign=top;resizable=0;rotatable=0;part=1;html=1;" vertex="1" parent="4e6Jq5Gow97NircjnduV-18">
          <mxGeometry y="50" width="160" height="70" as="geometry" />
        </mxCell>
        <mxCell id="4e6Jq5Gow97NircjnduV-25" style="edgeStyle=orthogonalEdgeStyle;rounded=0;orthogonalLoop=1;jettySize=auto;html=1;entryX=0.5;entryY=0;entryDx=0;entryDy=0;" edge="1" parent="1" source="4e6Jq5Gow97NircjnduV-21" target="4e6Jq5Gow97NircjnduV-22">
          <mxGeometry relative="1" as="geometry" />
        </mxCell>
        <mxCell id="4e6Jq5Gow97NircjnduV-21" value="Matriculado" style="shape=rhombus;perimeter=rhombusPerimeter;whiteSpace=wrap;html=1;align=center;" vertex="1" parent="1">
          <mxGeometry x="180" y="568" width="120" height="60" as="geometry" />
        </mxCell>
        <mxCell id="4e6Jq5Gow97NircjnduV-22" value="CARRERA" style="swimlane;childLayout=stackLayout;horizontal=1;startSize=50;horizontalStack=0;rounded=1;fontSize=14;fontStyle=0;strokeWidth=2;resizeParent=0;resizeLast=1;shadow=0;dashed=0;align=center;arcSize=4;whiteSpace=wrap;html=1;" vertex="1" parent="1">
          <mxGeometry x="160" y="669" width="160" height="120" as="geometry" />
        </mxCell>
        <mxCell id="4e6Jq5Gow97NircjnduV-23" value="&lt;b&gt;&lt;u&gt;idCarrera&lt;/u&gt;&lt;/b&gt;&lt;br&gt;Nombre&lt;br&gt;Edificio&lt;br&gt;Horas" style="align=left;strokeColor=none;fillColor=none;spacingLeft=4;fontSize=12;verticalAlign=top;resizable=0;rotatable=0;part=1;html=1;" vertex="1" parent="4e6Jq5Gow97NircjnduV-22">
          <mxGeometry y="50" width="160" height="70" as="geometry" />
        </mxCell>
        <mxCell id="4e6Jq5Gow97NircjnduV-26" value="&lt;font style=&quot;font-size: 25px;&quot;&gt;*&lt;/font&gt;" style="text;html=1;strokeColor=none;fillColor=none;align=center;verticalAlign=middle;whiteSpace=wrap;rounded=0;" vertex="1" parent="1">
          <mxGeometry x="200" y="506" width="60" height="30" as="geometry" />
        </mxCell>
        <mxCell id="4e6Jq5Gow97NircjnduV-27" value="&lt;font style=&quot;font-size: 25px;&quot;&gt;1&lt;/font&gt;" style="text;html=1;strokeColor=none;fillColor=none;align=center;verticalAlign=middle;whiteSpace=wrap;rounded=0;" vertex="1" parent="1">
          <mxGeometry x="190" y="639" width="60" height="30" as="geometry" />
        </mxCell>
        <mxCell id="4e6Jq5Gow97NircjnduV-28" value="&lt;font style=&quot;font-size: 25px;&quot;&gt;o&lt;/font&gt;" style="text;html=1;strokeColor=none;fillColor=none;align=center;verticalAlign=middle;whiteSpace=wrap;rounded=0;" vertex="1" parent="1">
          <mxGeometry x="303" y="429" width="60" height="30" as="geometry" />
        </mxCell>
        <mxCell id="4e6Jq5Gow97NircjnduV-29" value="&lt;font style=&quot;font-size: 25px;&quot;&gt;o&lt;/font&gt;" style="text;html=1;strokeColor=none;fillColor=none;align=center;verticalAlign=middle;whiteSpace=wrap;rounded=0;" vertex="1" parent="1">
          <mxGeometry x="569" y="430" width="60" height="30" as="geometry" />
        </mxCell>
        <mxCell id="4e6Jq5Gow97NircjnduV-30" value="|" style="text;html=1;strokeColor=none;fillColor=none;align=center;verticalAlign=middle;whiteSpace=wrap;rounded=0;" vertex="1" parent="1">
          <mxGeometry x="350" y="536" width="60" height="30" as="geometry" />
        </mxCell>
        <mxCell id="4e6Jq5Gow97NircjnduV-31" value="|" style="text;html=1;strokeColor=none;fillColor=none;align=center;verticalAlign=middle;whiteSpace=wrap;rounded=0;rotation=90;fontSize=17;" vertex="1" parent="1">
          <mxGeometry x="212" y="637" width="60" height="30" as="geometry" />
        </mxCell>
      </root>
    </mxGraphModel>
  </diagram>
  <diagram id="3DWQ8qGyW63cHG1vKa16" name="Página-2">
    <mxGraphModel dx="1036" dy="589" grid="1" gridSize="10" guides="1" tooltips="1" connect="1" arrows="1" fold="1" page="1" pageScale="1" pageWidth="1169" pageHeight="827" math="0" shadow="0">
      <root>
        <mxCell id="0" />
        <mxCell id="1" parent="0" />
        <mxCell id="itImkMTpW72jP1hsjwOD-2" value="ALUMNO" style="swimlane;childLayout=stackLayout;horizontal=1;startSize=50;horizontalStack=0;rounded=1;fontSize=14;fontStyle=0;strokeWidth=2;resizeParent=0;resizeLast=1;shadow=0;dashed=0;align=center;arcSize=4;whiteSpace=wrap;html=1;" vertex="1" parent="1">
          <mxGeometry x="160" y="256" width="160" height="120" as="geometry" />
        </mxCell>
        <mxCell id="itImkMTpW72jP1hsjwOD-3" value="&lt;b&gt;&lt;u&gt;Matrícula&lt;/u&gt;&lt;/b&gt;&lt;br&gt;Nombre&lt;br&gt;Telefono&lt;br&gt;Correo" style="align=left;strokeColor=none;fillColor=none;spacingLeft=4;fontSize=12;verticalAlign=top;resizable=0;rotatable=0;part=1;html=1;" vertex="1" parent="itImkMTpW72jP1hsjwOD-2">
          <mxGeometry y="50" width="160" height="70" as="geometry" />
        </mxCell>
        <mxCell id="itImkMTpW72jP1hsjwOD-5" value="Matriculado" style="shape=rhombus;perimeter=rhombusPerimeter;whiteSpace=wrap;html=1;align=center;" vertex="1" parent="1">
          <mxGeometry x="400" y="284" width="120" height="60" as="geometry" />
        </mxCell>
        <mxCell id="itImkMTpW72jP1hsjwOD-6" value="CARRERA" style="swimlane;childLayout=stackLayout;horizontal=1;startSize=50;horizontalStack=0;rounded=1;fontSize=14;fontStyle=0;strokeWidth=2;resizeParent=0;resizeLast=1;shadow=0;dashed=0;align=center;arcSize=4;whiteSpace=wrap;html=1;" vertex="1" parent="1">
          <mxGeometry x="610" y="254" width="160" height="120" as="geometry" />
        </mxCell>
        <mxCell id="itImkMTpW72jP1hsjwOD-7" value="&lt;b&gt;&lt;u&gt;idCarrera&lt;/u&gt;&lt;/b&gt;&lt;br&gt;Nombre&lt;br&gt;Edificio&lt;br&gt;Horas" style="align=left;strokeColor=none;fillColor=none;spacingLeft=4;fontSize=12;verticalAlign=top;resizable=0;rotatable=0;part=1;html=1;" vertex="1" parent="itImkMTpW72jP1hsjwOD-6">
          <mxGeometry y="50" width="160" height="70" as="geometry" />
        </mxCell>
        <mxCell id="itImkMTpW72jP1hsjwOD-13" value="" style="edgeStyle=entityRelationEdgeStyle;fontSize=12;html=1;endArrow=ERzeroToMany;endFill=1;rounded=0;entryX=1;entryY=0.25;entryDx=0;entryDy=0;exitX=0;exitY=0.5;exitDx=0;exitDy=0;" edge="1" parent="1" source="itImkMTpW72jP1hsjwOD-5" target="itImkMTpW72jP1hsjwOD-3">
          <mxGeometry width="100" height="100" relative="1" as="geometry">
            <mxPoint x="480" y="400" as="sourcePoint" />
            <mxPoint x="580" y="300" as="targetPoint" />
          </mxGeometry>
        </mxCell>
        <mxCell id="itImkMTpW72jP1hsjwOD-14" value="" style="edgeStyle=entityRelationEdgeStyle;fontSize=12;html=1;endArrow=ERone;endFill=1;rounded=0;entryX=0;entryY=0.25;entryDx=0;entryDy=0;exitX=1;exitY=0.5;exitDx=0;exitDy=0;" edge="1" parent="1" source="itImkMTpW72jP1hsjwOD-5" target="itImkMTpW72jP1hsjwOD-7">
          <mxGeometry width="100" height="100" relative="1" as="geometry">
            <mxPoint x="480" y="400" as="sourcePoint" />
            <mxPoint x="580" y="300" as="targetPoint" />
          </mxGeometry>
        </mxCell>
      </root>
    </mxGraphModel>
  </diagram>
</mxfile>
